<?xml version="1.0" encoding="UTF-8"?>
<svg width="512px" height="135px" viewBox="0 0 512 135" version="1.1" xmlns="http://www.w3.org/2000/svg" xmlns:xlink="http://www.w3.org/1999/xlink" preserveAspectRatio="xMidYMid">
    <g>
        <path d="M10.6974782,67.3475079 C10.6974782,36.0982642 36.0982642,10.6974782 67.3475079,10.6974782 C67.6168979,10.6974782 89.8119426,10.6974782 97.9609911,10.7109477 L81.5443625,27.1275762 L89.0872834,34.6704971 L122.925365,0 L67.3475079,0 C30.1525063,0 0,30.1525063 0,67.3475079 L0,119.71693 L10.7163355,109.846479 L10.7163355,109.307699 C10.7055599,107.936504 10.6974782,67.7515929 10.6974782,67.3475079 Z M134.695016,14.9753919 L123.975986,24.8485365 L123.975986,25.3873166 C123.975986,26.7585118 123.994844,66.9434228 123.994844,67.3475079 C123.994844,98.5967515 98.5805881,123.997538 67.344814,123.997538 C67.0754239,123.997538 44.8803793,123.997538 36.7313308,123.984068 L53.1506532,107.56744 L45.6077323,100.024519 L11.7696505,134.695016 L67.3475079,134.695016 C104.542509,134.695016 134.695016,104.542509 134.695016,67.3475079 L134.695016,14.9753919 Z M197.058808,18.6633414 L250.484239,18.6633414 L250.484239,27.617866 L207.020851,27.617866 L207.020851,65.7311677 L244.272105,65.7311677 L244.272105,74.6856923 L207.020851,74.6856923 L207.020851,120.169505 L197.05342,120.169505 L197.058808,18.6633414 Z M267.668629,18.6633414 L277.487896,18.6633414 L277.487896,100.827301 C277.487896,110.35832 281.819688,111.802251 285.569597,111.802251 C286.386943,111.799273 287.203516,111.75161 288.015658,111.659474 L288.015658,120.46314 C286.820997,120.646911 285.614517,120.743249 284.405832,120.751388 C278.341862,120.751388 267.65516,118.865658 267.65516,102.987809 L267.668629,18.6633414 Z M342.604854,75.2594931 L346.645705,75.2594931 L346.645705,73.3737629 C346.645705,59.3654812 338.992334,54.6026655 328.596573,54.6026655 C316.608716,54.6026655 308.095991,61.5313771 308.095991,61.5313771 L303.473258,54.0234769 C303.473258,54.0234769 313.009665,45.7963054 329.323926,45.7963054 C346.796563,45.7963054 356.470359,55.4701014 356.470359,73.6727858 L356.470359,120.174893 L347.090198,120.174893 L347.090198,112.227887 C347.079246,110.202894 347.175463,108.178741 347.378446,106.163918 L347.090198,106.163918 C347.090198,106.163918 341.026229,121.901683 322.845095,121.901683 C310.722544,121.901683 298.152799,114.824807 298.152799,100.382807 C298.136642,75.8279061 330.048585,75.2594931 342.604854,75.2594931 L342.604854,75.2594931 Z M324.412945,113.512878 C338.273063,113.512878 346.651093,99.0762658 346.651093,86.5119147 L346.651093,83.3331123 L342.464771,83.3331123 C331.058798,83.3331123 308.230686,83.7695242 308.230686,99.7955372 C308.244156,106.594942 313.58616,113.523653 324.412945,113.523653 L324.412945,113.512878 Z M381.456285,56.6365602 L371.925265,56.6365602 L371.925265,48.4066948 L381.599061,48.4066948 L381.599061,27.4777832 L391.272857,27.4777832 L391.272857,48.4147765 L409.472848,48.4147765 L409.472848,56.6446419 L391.280939,56.6446419 L391.280939,92.7429062 C391.280939,109.781826 402.107724,111.947721 407.595199,111.947721 C408.709188,111.961398 409.821799,111.864846 410.916778,111.659474 L410.916778,120.46314 C409.531467,120.672616 408.131406,120.769016 406.730457,120.751388 C398.357815,120.751388 381.461672,118.008997 381.461672,93.7504249 L381.456285,56.6365602 Z M429.827959,56.6365602 L420.296939,56.6365602 L420.296939,48.4066948 L429.970735,48.4066948 L429.970735,27.4777832 L439.644531,27.4777832 L439.644531,48.4147765 L457.83644,48.4147765 L457.83644,56.6446419 L439.644531,56.6446419 L439.644531,92.7429062 C439.644531,109.781826 450.471317,111.947721 455.958792,111.947721 C457.072781,111.961398 458.185391,111.864846 459.280371,111.659474 L459.280371,120.46314 C457.895059,120.672616 456.494999,120.769016 455.09405,120.751388 C446.721408,120.751388 429.825265,118.008997 429.825265,93.7504249 L429.827959,56.6365602 Z M475.457242,47.5419528 L485.131038,47.5419528 L485.131038,60.3945512 C485.131038,63.5733535 484.842791,66.1702734 484.842791,66.1702734 L485.131038,66.1702734 C488.5927,55.1953236 496.682483,46.8226814 508.088457,46.8226814 C509.403436,46.8352113 510.713843,46.9796088 512,47.2537054 L512,56.9275015 C510.80533,56.7438072 509.598856,56.6474693 508.390174,56.6392541 C498.121026,56.6392541 490.486512,64.7209551 487.30771,75.4103515 C485.930893,79.9989871 485.249848,84.7681212 485.287284,89.558716 L485.287284,120.164117 L475.473406,120.164117 L475.457242,47.5419528 Z" fill="#000000"></path>
    </g>
</svg>